<svg xmlns="http://www.w3.org/2000/svg" width="512" height="512" viewBox="0 0 512 512" version="1.1">
	<path d="M 214.368 46.687 C 170.643 73.627, 156.980 82.440, 157.327 83.482 C 157.513 84.042, 159.519 85.186, 161.784 86.024 L 165.904 87.547 156.202 92.926 C 131.449 106.650, 58.976 151.557, 58.302 153.588 C 58.091 154.225, 64.080 156.465, 72.721 158.982 C 80.849 161.350, 87.831 163.785, 88.235 164.394 C 89.535 166.351, 89.123 183.654, 87.750 184.782 C 87.063 185.347, 81.550 188.398, 75.500 191.563 C 61.829 198.713, 60.561 199.704, 62.544 201.687 C 63.697 202.840, 64 206.459, 64 219.071 C 64 227.832, 64.112 235.003, 64.250 235.007 C 64.388 235.010, 69.675 235.907, 76 237 C 82.325 238.093, 87.850 238.990, 88.277 238.993 C 88.705 238.997, 88.930 245.412, 88.777 253.250 L 88.500 267.500 76.027 271.773 C 62.564 276.386, 60.913 277.313, 62.800 279.200 C 63.632 280.032, 64 285.240, 64 296.181 C 64 314.517, 62.317 312.504, 78.451 313.472 C 83.924 313.800, 88.484 314.166, 88.585 314.284 C 88.685 314.403, 89.092 321.576, 89.488 330.224 L 90.208 345.948 87.854 346.905 C 86.559 347.431, 80.406 348.872, 74.179 350.107 C 63.689 352.188, 62.900 352.505, 63.416 354.426 C 63.722 355.567, 63.979 363.655, 63.986 372.400 L 64 388.301 74.029 387.643 C 82.710 387.074, 84.140 387.202, 84.674 388.594 C 85.014 389.478, 84.732 390.548, 84.047 390.971 C 83.363 391.394, 82.975 392.586, 83.185 393.620 C 83.519 395.266, 84.434 395.477, 90.533 395.316 C 94.365 395.214, 106.050 393.956, 116.500 392.520 C 126.950 391.083, 144.950 388.601, 156.500 387.004 C 168.050 385.406, 183.575 383.356, 191 382.448 C 198.425 381.541, 207.987 380.189, 212.249 379.446 C 216.510 378.702, 222.135 378.305, 224.749 378.562 C 227.362 378.819, 240.750 380.139, 254.500 381.495 C 277.372 383.749, 292.452 385.028, 349 389.505 C 359.725 390.354, 379.525 391.936, 393 393.021 C 406.475 394.105, 420.087 394.994, 423.250 394.996 C 428.882 395, 429 394.942, 429 392.200 C 429 390.660, 428.468 388.868, 427.817 388.217 C 427.166 387.566, 426.957 386.710, 427.352 386.315 C 428.248 385.419, 439.620 384.120, 447.168 384.051 C 456.567 383.966, 456 385.197, 456 364.893 C 456 355.052, 455.663 346.995, 455.250 346.989 C 452.956 346.957, 428.690 342.927, 427.919 342.450 C 426.426 341.527, 426.744 305.033, 428.250 304.469 C 428.938 304.212, 435.125 303.185, 442 302.188 L 454.500 300.375 454.773 282.817 L 455.045 265.259 442.376 262.086 C 435.408 260.341, 428.873 258.467, 427.853 257.922 C 426.164 257.018, 426 255.473, 426 240.500 C 426 225.868, 426.192 223.970, 427.750 223.154 C 428.712 222.650, 434.900 220.993, 441.500 219.471 C 448.100 217.949, 453.799 216.433, 454.164 216.102 C 454.530 215.771, 454.980 207.554, 455.164 197.842 L 455.500 180.183 441.379 175.372 L 427.259 170.562 426.549 155.647 C 425.978 143.660, 426.106 140.465, 427.203 139.368 C 427.953 138.618, 433.435 135.856, 439.385 133.231 C 445.334 130.606, 450.242 128.017, 450.291 127.479 C 450.380 126.493, 413.060 111.515, 388 102.478 C 380.575 99.801, 374.324 97.484, 374.108 97.330 C 373.893 97.176, 374.793 96.177, 376.108 95.111 C 377.424 94.045, 378.220 92.891, 377.879 92.548 C 377.537 92.205, 366.065 87.632, 352.386 82.386 C 338.707 77.140, 327.337 72.670, 327.119 72.452 C 326.901 72.234, 327.910 71.605, 329.361 71.053 C 330.813 70.501, 332 69.405, 332 68.618 C 332 67.125, 330.001 66.305, 271.368 43.735 L 239.236 31.366 214.368 46.687 M 243.158 46 C 243.158 47.375, 243.385 47.938, 243.662 47.250 C 243.940 46.563, 243.940 45.438, 243.662 44.750 C 243.385 44.063, 243.158 44.625, 243.158 46 M 216.500 56.596 C 199.922 66.860, 194.025 71.122, 198.500 69.607 C 203.150 68.031, 236 48.494, 236 47.303 C 236 46.586, 235.438 46.016, 234.750 46.035 C 234.063 46.055, 225.850 50.807, 216.500 56.596 M 248 47.378 C 248 48.135, 248.563 49.216, 249.250 49.778 C 250.844 51.083, 303.332 68.676, 308 69.470 L 311.500 70.065 308.912 68.585 C 306.649 67.291, 249.658 46, 248.458 46 C 248.206 46, 248 46.620, 248 47.378 M 248.586 73.747 C 248.264 74.070, 248 90.191, 248 109.573 L 248 144.812 252.678 146.406 C 258.499 148.389, 261.620 148.433, 262.346 146.541 C 262.654 145.738, 265.177 143.930, 267.953 142.524 C 270.729 141.117, 273 139.524, 273 138.983 C 273 137.441, 271.753 137.804, 267.785 140.500 C 263.690 143.283, 261 143.720, 261 141.604 C 261 139.973, 266.234 135.316, 271.102 132.615 C 272.971 131.578, 273.975 130.541, 273.333 130.310 C 272.692 130.078, 269.654 131.307, 266.583 133.040 L 261 136.191 261 133.323 C 261 131.071, 261.752 130.050, 264.500 128.570 C 268.929 126.185, 268.911 125.261, 264.420 124.419 C 260.598 123.702, 259.007 121.593, 260.877 119.723 C 261.734 118.866, 263.506 118.979, 267.961 120.173 C 271.229 121.048, 274.135 121.532, 274.419 121.248 C 274.703 120.963, 274.655 113.591, 274.311 104.865 C 273.968 96.139, 274.031 89, 274.452 89 C 274.873 89, 285.897 92.798, 298.949 97.441 C 312.002 102.083, 323.878 106.182, 325.341 106.549 L 328 107.217 328 123 L 328 138.782 338.250 142.360 C 364.706 151.592, 376.111 154.875, 376.670 153.418 C 377.593 151.013, 376.310 149.312, 373.086 148.667 C 370.454 148.141, 370 147.605, 370 145.025 C 370 143.361, 370.337 141.998, 370.750 141.995 C 371.163 141.992, 380.367 144.975, 391.204 148.624 L 410.908 155.257 411.204 160.782 C 411.493 166.181, 411.586 166.337, 415.250 167.601 L 419 168.895 419 151.555 C 419 135.975, 418.822 134.142, 417.250 133.508 C 416.288 133.119, 400.650 127.496, 382.500 121.011 C 364.350 114.527, 336.450 104.397, 320.500 98.501 C 282.128 84.315, 249.313 73.020, 248.586 73.747 M 181.162 77.974 C 177.773 80.164, 175 82.228, 175 82.561 C 175 83.066, 179.134 80.823, 186.992 76.055 C 187.812 75.557, 188.223 74.889, 187.904 74.570 C 187.585 74.252, 184.551 75.783, 181.162 77.974 M 181.973 99.865 C 177.313 102.550, 167.200 108.523, 159.500 113.138 L 145.500 121.529 145.246 247.765 L 144.992 374 147.377 374 C 150.127 374, 189.874 368.190, 191.750 367.513 C 192.722 367.163, 193 358.174, 193 327.153 L 193 287.243 185.576 283.903 C 181.493 282.065, 178.372 280.206, 178.641 279.772 C 178.909 279.338, 182.255 276.488, 186.077 273.439 L 193.025 267.895 192.762 231.378 L 192.500 194.861 185.250 191.834 C 181.262 190.170, 178 188.499, 178 188.122 C 178 187.745, 181.380 184.835, 185.511 181.655 L 193.023 175.873 192.761 135.770 C 192.590 109.460, 192.147 95.549, 191.473 95.324 C 190.909 95.136, 186.634 97.179, 181.973 99.865 M 282.579 105.654 C 282.261 106.484, 282 110.936, 282 115.547 C 282 122.859, 282.251 124.064, 283.967 124.982 C 287.463 126.853, 297.996 129.816, 298.463 129.059 C 299.072 128.074, 298.113 110.991, 297.382 109.809 C 296.742 108.774, 293.606 107.413, 287.329 105.449 C 283.722 104.320, 283.081 104.347, 282.579 105.654 M 221.250 109.031 L 219 109.936 219 135.468 C 219 162.413, 218.946 162.109, 223.418 160.393 C 224.804 159.861, 225 156.582, 225 133.893 C 225 119.652, 224.662 108.029, 224.250 108.063 C 223.838 108.098, 222.488 108.534, 221.250 109.031 M 306.587 112.746 C 306.264 113.069, 306 117.485, 306 122.560 C 306 130.410, 306.261 131.892, 307.750 132.496 C 308.712 132.886, 311.863 134.035, 314.750 135.049 L 320 136.892 320 127.637 C 320 121.761, 319.544 117.793, 318.750 116.768 C 317.405 115.032, 307.558 111.776, 306.587 112.746 M 282.610 131.723 C 281.694 132.639, 281.906 150.303, 282.850 151.792 C 283.546 152.889, 294.882 156.969, 297.298 156.992 C 297.736 156.997, 297.961 154.188, 297.798 150.750 L 297.500 144.500 291.750 142.520 C 288.587 141.431, 286 140.136, 286 139.642 C 286 138.763, 292.282 139.404, 295.404 140.602 C 297.290 141.325, 298.754 138.354, 297.252 136.852 C 295.766 135.366, 283.325 131.008, 282.610 131.723 M 306 141.232 C 306 142.892, 306.830 144.057, 308.579 144.854 C 311.576 146.219, 311.331 148.355, 308.124 148.826 C 306.089 149.125, 305.929 149.622, 306.202 154.815 L 306.500 160.478 312.750 162.161 L 319 163.843 319 153.502 L 319 143.161 313.750 141.435 C 310.863 140.485, 307.938 139.501, 307.250 139.247 C 306.465 138.958, 306 139.696, 306 141.232 M 271.541 146.933 C 271.179 147.520, 270.035 148, 269 148 C 267.965 148, 266.799 148.516, 266.410 149.146 C 265.905 149.962, 266.535 150.086, 268.601 149.575 C 271.783 148.789, 273.694 147.361, 272.783 146.450 C 272.463 146.129, 271.904 146.347, 271.541 146.933 M 328 147.397 C 328 148.240, 328.900 149.411, 330 150 C 331.100 150.589, 332 151.505, 332 152.035 C 332 152.566, 331.100 153, 330 153 C 327.930 153, 327.240 155.413, 329 156.500 C 329.550 156.840, 330 158.216, 330 159.559 C 330 161.355, 329.457 162, 327.945 162 C 326.119 162, 325.924 162.526, 326.195 166.719 L 326.500 171.439 332 173.158 C 341.611 176.163, 341.099 176.796, 340.780 162.292 L 340.500 149.585 336.110 148.315 C 333.695 147.617, 330.883 146.780, 329.860 146.456 C 328.599 146.055, 328 146.359, 328 147.397 M 347 155 C 347 158.453, 348.437 158.920, 350.011 155.979 C 351.237 153.688, 350.571 152, 348.441 152 C 347.507 152, 347 153.055, 347 155 M 382 154.536 C 382 155.407, 383.982 156.920, 386.583 158.036 C 392.187 160.438, 392 160.438, 392 158.026 C 392 156.851, 390.805 155.434, 389.050 154.526 C 385.244 152.558, 382 152.562, 382 154.536 M 123.750 159.220 L 120 161.393 120 184.080 C 120 206.762, 120.001 206.767, 122.250 207.370 C 123.487 207.701, 125.963 207.979, 127.750 207.986 L 131 208 131 182.500 C 131 153.871, 131.302 154.842, 123.750 159.220 M 364.521 158.966 C 364.165 159.543, 364.464 160.185, 365.187 160.393 C 372.169 162.406, 375.282 163.051, 375.751 162.582 C 376.057 162.277, 374.775 161.399, 372.904 160.633 C 367.108 158.260, 365.192 157.880, 364.521 158.966 M 395.188 159.063 C 395.428 159.784, 396.216 160.572, 396.938 160.813 C 397.688 161.063, 398.063 160.688, 397.813 159.938 C 397.572 159.216, 396.784 158.428, 396.063 158.188 C 395.313 157.938, 394.938 158.313, 395.188 159.063 M 347 164 C 347 164.550, 347.648 165, 348.441 165 C 349.234 165, 350.160 164.550, 350.500 164 C 350.840 163.450, 350.191 163, 349.059 163 C 347.927 163, 347 163.450, 347 164 M 109.984 166.861 C 106.332 168.812, 105.238 171.827, 106.441 176.621 C 106.927 178.556, 107.687 179, 110.519 179 L 114 179 114 172 C 114 168.150, 113.880 165, 113.734 165 C 113.588 165, 111.901 165.837, 109.984 166.861 M 365.200 166.200 C 364.540 166.860, 364 167.701, 364 168.068 C 364 168.678, 369.561 169.870, 374.500 170.318 C 377.848 170.622, 376.752 167.769, 373 166.415 C 368.461 164.777, 366.672 164.728, 365.200 166.200 M 248.663 197.750 C 247.870 231.121, 247.809 256.476, 248.520 257.186 C 248.806 257.472, 252.426 256.760, 256.564 255.603 C 263.435 253.683, 264.040 253.307, 263.531 251.274 C 263.060 249.393, 263.753 248.652, 267.987 246.507 C 270.744 245.109, 273 243.793, 273 243.581 C 273 243.369, 270.923 243.821, 268.384 244.585 C 263.490 246.058, 262 245.788, 262 243.428 C 262 242.129, 267.274 239.143, 272.393 237.544 C 276.416 236.288, 272.810 235.793, 268.474 237.007 C 265.487 237.844, 263.550 237.950, 262.912 237.312 C 261.065 235.465, 263.039 233.475, 269.015 231.157 C 272.307 229.881, 275 228.423, 275 227.918 C 275 226.741, 275.374 226.669, 269.093 229.056 C 264.758 230.704, 263.522 230.852, 262.859 229.805 C 261.363 227.447, 261.961 225.147, 264.250 224.453 C 265.488 224.078, 268.637 222.867, 271.250 221.762 L 276 219.754 276 204.877 C 276 191.100, 276.136 190, 277.839 190 C 278.851 190, 288.413 192.529, 299.089 195.619 C 309.765 198.709, 320.975 201.903, 324 202.715 C 327.025 203.528, 329.831 204.712, 330.235 205.346 C 330.639 205.981, 330.976 212.657, 330.985 220.183 C 330.998 232.333, 331.196 233.926, 332.750 234.407 C 333.712 234.705, 337.875 235.652, 342 236.512 C 346.125 237.372, 354 239.374, 359.500 240.961 C 365 242.549, 371.188 244.127, 373.250 244.469 L 377 245.091 377 241.133 C 377 237.296, 376.879 237.155, 373 236.500 C 369.380 235.888, 369 235.541, 369 232.845 C 369 230.467, 369.353 229.975, 370.750 230.408 C 375.054 231.743, 406.680 238.980, 408.250 238.989 C 409.759 238.999, 410 240.025, 410 246.441 C 410 250.534, 410.341 254.093, 410.758 254.350 C 411.174 254.608, 413.199 255.134, 415.258 255.521 L 419 256.223 419 237.651 L 419 219.080 415.250 218.019 C 413.188 217.435, 394.980 212.472, 374.789 206.991 C 354.598 201.510, 326.473 193.375, 312.289 188.914 C 285.062 180.350, 250.934 170, 249.922 170 C 249.592 170, 249.025 182.488, 248.663 197.750 M 413 173 C 413 173.550, 414.238 173.968, 415.750 173.930 C 418.187 173.867, 418.272 173.762, 416.500 173 C 413.769 171.826, 413 171.826, 413 173 M 366.750 174.662 C 367.438 174.940, 368.563 174.940, 369.250 174.662 C 369.938 174.385, 369.375 174.158, 368 174.158 C 366.625 174.158, 366.063 174.385, 366.750 174.662 M 427 178.826 C 427 181.126, 428.784 181.974, 433.832 182.070 C 436.794 182.127, 437.115 182.306, 435.500 183 C 434.400 183.473, 432.038 183.891, 430.250 183.930 C 428.462 183.968, 427 184.450, 427 185 C 427 186.526, 430.996 186.096, 436 184.032 L 440.500 182.176 436 180.195 C 428.290 176.801, 427 176.605, 427 178.826 M 107 185 C 107 185.550, 108.098 186, 109.441 186 C 110.784 186, 112.160 185.550, 112.500 185 C 112.861 184.417, 111.844 184, 110.059 184 C 108.377 184, 107 184.450, 107 185 M 435.252 190.383 C 431.266 191.547, 428.004 192.846, 428.002 193.269 C 427.999 194.264, 431.992 193.265, 439.500 190.393 C 446.897 187.563, 444.920 187.559, 435.252 190.383 M 108.750 190.689 C 106.657 191.236, 106.404 193, 108.418 193 C 110.587 193, 113 191.890, 113 190.893 C 113 189.966, 111.746 189.906, 108.750 190.689 M 83 195.045 C 78.358 198.055, 78.961 199.106, 83.872 196.566 C 86.769 195.068, 89.883 191.953, 88.372 192.064 C 87.893 192.099, 85.475 193.441, 83 195.045 M 108 197 C 106.862 197.736, 107.284 197.973, 109.750 197.985 C 111.537 197.993, 113 197.550, 113 197 C 113 195.730, 109.965 195.730, 108 197 M 85 199.500 C 83.649 201.128, 83.972 201.332, 86.418 200.393 C 87.288 200.059, 88 199.384, 88 198.893 C 88 197.510, 86.380 197.838, 85 199.500 M 108.762 203.707 C 110.006 203.946, 111.806 203.937, 112.762 203.687 C 113.718 203.437, 112.700 203.241, 110.500 203.252 C 108.300 203.263, 107.518 203.468, 108.762 203.707 M 284.743 203.590 C 283.693 204.640, 283.815 221.767, 284.877 222.424 C 285.359 222.722, 288.509 223.609, 291.877 224.394 L 298 225.823 298 216.360 L 298 206.898 294.447 205.413 C 289.724 203.440, 285.657 202.676, 284.743 203.590 M 218.630 206.250 C 218.299 207.488, 218.021 217.416, 218.014 228.313 L 218 248.127 221.250 247.813 L 224.500 247.500 224.770 225.750 L 225.039 204 222.136 204 C 219.971 204, 219.080 204.572, 218.630 206.250 M 82 205.969 C 82 206.501, 82.675 206.678, 83.500 206.362 C 84.325 206.045, 85 205.609, 85 205.393 C 85 205.177, 84.325 205, 83.500 205 C 82.675 205, 82 205.436, 82 205.969 M 307 218.342 L 307 227.683 310.750 228.756 C 312.813 229.346, 315.962 230.128, 317.750 230.494 L 321 231.159 321 222.120 L 321 213.080 314.395 211.040 C 310.762 209.918, 307.612 209, 307.395 209 C 307.178 209, 307 213.204, 307 218.342 M 284.784 231.021 C 284.394 233.675, 284.621 233.865, 288.936 234.486 C 291.446 234.848, 294.551 235.395, 295.837 235.702 C 297.827 236.178, 298.123 235.920, 297.837 233.966 C 297.562 232.096, 296.364 231.353, 291.348 229.942 L 285.196 228.212 284.784 231.021 M 307.149 235.477 C 307.385 236.660, 309.557 237.871, 313.750 239.156 C 322.027 241.694, 321.962 243.369, 313.621 242.476 L 307.243 241.793 306.772 245.647 C 306.513 247.766, 306.489 250.017, 306.719 250.648 C 307.181 251.921, 314.454 254, 318.443 254 C 320.981 254, 321 253.938, 321 245.672 L 321 237.343 316.250 236.196 C 313.637 235.564, 310.442 234.748, 309.149 234.381 C 307.255 233.844, 306.867 234.057, 307.149 235.477 M 285 242.003 L 285 247.724 290.667 248.862 C 293.784 249.488, 296.732 250, 297.219 250 C 297.706 250, 297.969 247.681, 297.802 244.848 L 297.500 239.695 291.250 237.989 L 285 236.283 285 242.003 M 123.750 238.646 L 120 240.214 120 264.971 L 120 289.728 124.693 290.371 C 127.274 290.725, 129.756 290.644, 130.210 290.190 C 130.663 289.737, 130.914 277.702, 130.767 263.446 C 130.470 234.650, 130.771 235.711, 123.750 238.646 M 383 243.063 C 383 245.857, 385.255 248.078, 386.663 246.670 C 387.664 245.669, 386.084 241.246, 384.509 240.642 C 383.370 240.205, 383 240.799, 383 243.063 M 332 241.744 C 332 242.307, 332.900 243.002, 334 243.290 C 336.564 243.960, 336.608 246, 334.059 246 C 331.283 246, 330.534 247.828, 332.445 249.939 C 333.907 251.555, 333.918 251.818, 332.543 252.345 C 330.580 253.098, 330.559 255.389, 332.500 257 C 334.500 258.660, 334.391 259.684, 332 261.732 C 330.900 262.674, 330 264.617, 330 266.049 C 330 268.472, 330.465 268.740, 336.658 269.881 C 342.072 270.879, 343.477 270.864, 344.179 269.804 C 345.158 268.324, 344.147 243.915, 343.057 242.723 C 341.901 241.460, 332 240.583, 332 241.744 M 108.750 244.162 C 106.031 245.155, 106 245.266, 106 254.083 C 106 258.988, 106.383 263, 106.851 263 C 107.319 263, 109.119 262.506, 110.851 261.902 L 114 260.804 114 251.902 C 114 242.379, 113.927 242.271, 108.750 244.162 M 392.170 246.162 C 392.352 247.437, 393.288 248.630, 394.250 248.813 C 396.726 249.285, 396.473 246.323, 393.920 244.957 C 392.067 243.966, 391.876 244.097, 392.170 246.162 M 352.500 246 C 352.840 246.550, 353.766 247, 354.559 247 C 355.352 247, 356 246.550, 356 246 C 356 245.450, 355.073 245, 353.941 245 C 352.809 245, 352.160 245.450, 352.500 246 M 363.500 251 C 363.840 251.550, 366.904 251.993, 370.309 251.985 C 374.675 251.974, 376.058 251.684, 375 251 C 372.976 249.692, 362.692 249.692, 363.500 251 M 363.442 257.901 C 365.275 258.618, 374.019 258.229, 374.917 257.389 C 375.146 257.175, 372.221 257.032, 368.417 257.070 C 364.157 257.114, 362.246 257.433, 363.442 257.901 M 411 261.387 C 411 262.183, 412.384 262.984, 414.250 263.267 C 418.415 263.901, 419.811 263.066, 417.460 261.347 C 415.049 259.584, 411 259.608, 411 261.387 M 367.750 263.735 C 365.137 263.941, 363 264.526, 363 265.036 C 363 266.142, 372.075 265.130, 373.450 263.870 C 374.050 263.321, 374.050 263.066, 373.450 263.180 C 372.928 263.279, 370.363 263.529, 367.750 263.735 M 411.189 267.761 C 411.572 269.769, 415.721 270.679, 417.299 269.101 C 418.656 267.744, 418.257 267.431, 414.179 266.654 C 411.380 266.121, 410.910 266.295, 411.189 267.761 M 108.835 267.741 C 107.158 268.117, 105.393 271, 106.840 271 C 108.005 271, 111.573 268.224, 110.998 267.766 C 110.724 267.547, 109.751 267.536, 108.835 267.741 M 429.264 268.718 C 430.784 268.947, 433.034 268.941, 434.264 268.704 C 435.494 268.467, 434.250 268.279, 431.500 268.286 C 428.750 268.294, 427.744 268.488, 429.264 268.718 M 249 314.500 L 249 356 252.750 355.953 C 254.813 355.928, 259.425 355.324, 263 354.611 C 269.369 353.342, 269.489 353.016, 264.176 351.407 C 261.777 350.680, 263.442 347.642, 266.702 346.797 C 271.535 345.545, 271.732 344, 267.059 344 C 263.693 344, 263 343.665, 263 342.039 C 263 340.594, 264.062 339.791, 267.030 338.992 C 271.848 337.695, 271.334 335.659, 266.422 336.581 C 263.239 337.178, 263 337.041, 263 334.623 C 263 332.364, 263.523 331.940, 267 331.384 C 269.200 331.032, 271 330.352, 271 329.872 C 271 329.392, 269.200 329, 267 329 C 263.448 329, 263 328.732, 263 326.607 C 263 323.773, 264.624 323, 270.582 323 L 275 323 275 303 C 275 287.657, 275.291 283.004, 276.250 283.017 C 278.377 283.047, 294.887 285.862, 308 288.431 C 314.875 289.777, 322.355 291.161, 324.623 291.506 C 328.639 292.117, 328.763 292.252, 329.373 296.706 C 329.718 299.221, 330 307.901, 330 315.995 L 330 330.711 349.250 333.335 C 359.837 334.778, 371.111 336.257, 374.301 336.623 L 380.103 337.287 379.801 330.900 L 379.500 324.512 374.750 323.648 C 370.688 322.909, 370 322.446, 370 320.451 C 370 319.168, 370.344 317.905, 370.765 317.645 C 371.186 317.385, 378.724 318.243, 387.515 319.552 C 396.307 320.861, 404.962 321.948, 406.750 321.966 L 410 322 410 331.393 C 410 341.736, 410.164 342, 416.582 342 L 420 342 420 323.559 C 420 311.907, 419.618 304.882, 418.963 304.477 C 418.393 304.125, 403.430 301.187, 385.713 297.949 C 367.996 294.711, 341.350 289.549, 326.500 286.479 C 298.594 280.710, 255.643 273, 251.410 273 L 249 273 249 314.500 M 411 274.500 C 411 275.733, 411.787 276.051, 414.250 275.813 C 416.038 275.641, 417.500 275.050, 417.500 274.500 C 417.500 273.950, 416.038 273.359, 414.250 273.187 C 411.787 272.949, 411 273.267, 411 274.500 M 83.750 275.162 C 79.925 276.559, 80.289 278.064, 84.183 276.948 C 87.736 275.929, 90.336 273.949, 87.950 274.079 C 87.153 274.122, 85.263 274.610, 83.750 275.162 M 108.750 274.689 C 107.787 274.941, 107 275.564, 107 276.073 C 107 277.416, 108.337 277.212, 110.559 275.532 C 112.504 274.061, 112.020 273.835, 108.750 274.689 M 429.750 274.662 C 430.438 274.940, 431.563 274.940, 432.250 274.662 C 432.938 274.385, 432.375 274.158, 431 274.158 C 429.625 274.158, 429.063 274.385, 429.750 274.662 M 109.250 279.780 C 106.906 280.154, 106.064 282.011, 108.250 281.985 C 109.757 281.966, 112.634 280.249, 111.971 279.765 C 111.712 279.575, 110.487 279.582, 109.250 279.780 M 84.250 280.662 C 83.563 280.940, 83 281.537, 83 281.990 C 83 283.012, 86.832 282.082, 87.575 280.879 C 88.153 279.944, 86.326 279.825, 84.250 280.662 M 83 287 C 81.787 287.784, 81.931 287.972, 83.750 287.985 C 84.987 287.993, 86 287.550, 86 287 C 86 285.747, 84.939 285.747, 83 287 M 108.750 286.662 C 109.438 286.940, 110.563 286.940, 111.250 286.662 C 111.938 286.385, 111.375 286.158, 110 286.158 C 108.625 286.158, 108.063 286.385, 108.750 286.662 M 284 309.941 C 284 317.609, 284.337 324.088, 284.750 324.339 C 285.163 324.591, 288.538 325.120, 292.250 325.515 L 299 326.233 298.985 313.366 C 298.976 306.290, 298.592 299.905, 298.131 299.178 C 297.221 297.743, 291.156 296.062, 286.750 296.024 L 284 296 284 309.941 M 307 312.921 C 307 328.444, 306.389 327.215, 314.750 328.515 L 319 329.176 319 315.623 C 319 300.439, 319.193 300.838, 311.250 299.625 L 307 298.976 307 312.921 M 219.300 306.424 C 218.860 307.208, 218.631 316.433, 218.792 326.924 L 219.084 346 222.042 346 L 225 346 225 325.500 L 225 305 222.550 305 C 221.202 305, 219.740 305.641, 219.300 306.424 M 124 315.306 L 120.500 316.500 120.234 343.688 C 119.940 373.758, 120.602 371.025, 113.250 372.505 C 111.275 372.902, 110 373.762, 110 374.698 C 110 376.018, 111.245 376.140, 118.750 375.555 C 123.563 375.180, 128.287 374.646, 129.250 374.369 C 130.866 373.904, 131 371.581, 131 343.933 C 131 310.536, 131.538 312.736, 124 315.306 M 111 319.950 C 108.595 320.561, 108.489 320.925, 108.221 329.543 C 108.068 334.469, 108.293 341.650, 108.721 345.500 C 109.428 351.855, 109.720 352.531, 111.890 352.838 C 113.884 353.120, 114.189 352.831, 113.733 351.088 C 113.433 349.940, 113.595 349, 114.094 349 C 115.178 349, 115.331 320.295, 114.250 319.717 C 113.838 319.496, 112.375 319.601, 111 319.950 M 386.667 327.667 C 386.300 328.033, 386 330.294, 386 332.691 C 386 336.449, 386.353 337.184, 388.565 338.025 C 392.686 339.592, 393 339.280, 393 333.617 C 393 328.879, 392.730 328.161, 390.750 327.630 C 387.864 326.857, 387.473 326.860, 386.667 327.667 M 284.240 332.221 C 284.464 332.892, 286.189 333.737, 288.074 334.099 C 298.211 336.046, 298 336.046, 298 334.100 C 298 332.053, 294.533 331, 287.792 331 C 285.120 331, 283.966 331.397, 284.240 332.221 M 308 334.939 C 308 336.405, 308.649 337.004, 310.250 337.015 C 313.225 337.036, 315.427 338.500, 314.569 339.888 C 314.191 340.500, 312.334 341, 310.441 341 C 307.170 341, 307 341.175, 307 344.525 C 307 348.498, 309.350 350, 315.565 350 L 319 350 319 342.559 C 319 338.466, 318.663 334.924, 318.250 334.686 C 317.837 334.449, 315.363 333.945, 312.750 333.566 C 308.397 332.935, 308 333.050, 308 334.939 M 331 337.905 C 331 338.534, 332.125 339.477, 333.500 340 C 334.875 340.523, 336 341.637, 336 342.475 C 336 343.435, 335.074 344, 333.500 344 C 331.692 344, 331 344.537, 331 345.941 C 331 347.009, 331.450 348.160, 332 348.500 C 333.542 349.453, 333.183 352.798, 331.434 353.777 C 330.295 354.414, 329.954 355.860, 330.184 359.077 L 330.500 363.500 337.500 363.500 L 344.500 363.500 344.484 351.317 C 344.474 344.616, 344.128 338.794, 343.712 338.379 C 342.390 337.056, 331 336.631, 331 337.905 M 284 341.893 C 284 346.814, 284.991 347.428, 293 347.471 L 298.500 347.500 298.823 344.123 C 299 342.265, 298.775 340.376, 298.323 339.925 C 297.870 339.474, 294.462 338.794, 290.750 338.414 L 284 337.724 284 341.893 M 352.750 339.662 C 353.438 339.940, 354.563 339.940, 355.250 339.662 C 355.938 339.385, 355.375 339.158, 354 339.158 C 352.625 339.158, 352.063 339.385, 352.750 339.662 M 365.197 342.096 C 365.777 343.840, 379 344.783, 379 343.080 C 379 342.486, 377.938 342, 376.640 342 C 375.341 342, 372.131 341.706, 369.505 341.346 C 365.654 340.818, 364.821 340.963, 365.197 342.096 M 388.475 345.557 C 390.124 346.803, 390.251 347.368, 389.246 348.978 C 388.412 350.313, 388.368 351.109, 389.102 351.563 C 389.685 351.923, 389.892 353.294, 389.562 354.609 C 389.223 355.959, 389.406 357, 389.981 357 C 390.568 357, 391 354.248, 391 350.500 C 391 344.417, 390.856 344.002, 388.750 344.032 C 386.539 344.063, 386.534 344.089, 388.475 345.557 M 411 347.500 C 411 348.583, 412.111 349, 415 349 C 419.753 349, 420.302 347.510, 415.875 346.625 C 411.441 345.738, 411 345.817, 411 347.500 M 365.542 348.906 C 364.107 349.467, 365.042 349.847, 369.042 350.327 C 377.272 351.315, 379 351.172, 379 349.500 C 379 348.332, 377.726 348.016, 373.250 348.070 C 370.087 348.109, 366.619 348.485, 365.542 348.906 M 428 350.012 C 428 350.638, 429.621 350.775, 432.250 350.373 C 438.074 349.481, 438.220 349, 432.667 349 C 430.100 349, 428 349.455, 428 350.012 M 411.494 352.839 C 410.170 354.163, 411.333 355, 414.500 355 C 416.425 355, 418 354.601, 418 354.113 C 418 353.149, 412.300 352.033, 411.494 352.839 M 81.500 355 C 81.160 355.550, 81.557 356, 82.382 356 C 83.207 356, 84.160 355.550, 84.500 355 C 84.840 354.450, 84.443 354, 83.618 354 C 82.793 354, 81.840 354.450, 81.500 355 M 367.750 354.716 C 363.926 355.295, 364.297 356.998, 368.250 357.011 C 370.038 357.017, 373.188 357.301, 375.250 357.642 C 378.214 358.132, 379 357.942, 379 356.738 C 379 354.193, 375.433 353.552, 367.750 354.716 M 430.500 356 C 428.103 356.610, 428.745 356.787, 433.691 356.882 C 437.096 356.947, 440.160 356.550, 440.500 356 C 441.217 354.841, 435.056 354.841, 430.500 356 M 82.500 360 C 82.160 360.550, 82.584 361, 83.441 361 C 84.298 361, 85 360.550, 85 360 C 85 359.450, 84.577 359, 84.059 359 C 83.541 359, 82.840 359.450, 82.500 360 M 411 360 C 411 360.550, 412.800 361, 415 361 C 417.200 361, 419 360.550, 419 360 C 419 359.450, 417.200 359, 415 359 C 412.800 359, 411 359.450, 411 360 M 431 363 C 429.667 363.862, 429.667 363.963, 431 363.914 C 431.825 363.884, 433.400 363.473, 434.500 363 L 436.500 362.141 434.500 362.086 C 433.400 362.055, 431.825 362.467, 431 363 M 208.492 439.897 C 207.752 492.726, 207.746 492.833, 205.625 493.402 C 204.456 493.716, 201.869 493.979, 199.875 493.986 C 196.602 493.999, 196.189 493.693, 195.617 490.837 C 195.168 488.590, 195.472 487.136, 196.669 485.813 C 197.960 484.387, 198.078 483.678, 197.176 482.776 C 195.351 480.951, 195.781 477.862, 198.224 475.262 C 200.450 472.893, 200.112 471.950, 196.597 470.715 C 196.100 470.541, 196.887 469.204, 198.347 467.744 C 202.113 463.978, 201.913 461.641, 197.900 462.522 C 195.063 463.145, 194.859 463.021, 195.483 461.053 C 196.231 458.696, 194.574 456, 192.378 456 C 191.620 456, 190.993 457.012, 190.985 458.250 C 190.974 459.796, 190.714 460.098, 190.155 459.216 C 189.706 458.508, 188.591 458.220, 187.670 458.573 C 185.733 459.317, 185.451 463.051, 187.200 464.800 C 188.133 465.733, 187.800 466, 185.700 466 L 183 466 183 427.559 C 183 406.416, 182.619 388.883, 182.154 388.595 C 181.689 388.308, 171.227 389.401, 158.904 391.025 C 146.582 392.648, 135.908 393.982, 135.184 393.988 C 134.339 393.996, 133.981 394.986, 134.184 396.750 C 134.450 399.063, 134.937 399.470, 137.250 399.312 L 140 399.123 140 437.422 L 140 475.721 134.750 476.352 C 124.963 477.528, 122 477.224, 122 475.047 C 122 473.973, 122.516 471.961, 123.147 470.577 C 124.038 468.621, 124.003 467.708, 122.989 466.487 C 122.001 465.297, 121.966 464.634, 122.842 463.758 C 124.673 461.927, 124.193 460, 121.906 460 C 120.654 460, 119.603 459.197, 119.290 458 C 118.519 455.051, 114.204 455.334, 113.034 458.410 C 112.153 460.727, 111.680 460.835, 100.809 461.199 C 94.589 461.408, 88.460 461.225, 87.190 460.791 C 84.555 459.893, 85.144 458, 88.059 458 C 89.127 458, 90 457.550, 90 457 C 90 455.788, 90.213 455.792, 86.242 456.931 C 83.137 457.821, 83.023 457.756, 83.607 455.431 C 84.063 453.611, 83.812 453, 82.608 453 C 81.637 453, 81 453.838, 81 455.117 C 81 456.670, 80.534 457.091, 79.250 456.698 C 78.287 456.403, 75.925 455.680, 74 455.091 L 70.500 454.021 73.750 456.583 C 77.900 459.855, 77.857 461, 73.582 461 C 71.702 461, 69.452 461.273, 68.582 461.607 C 65.686 462.718, 66.949 464, 70.941 464 C 76.316 464, 76.756 465.399, 71.972 467.279 C 69.787 468.137, 68 469.373, 68 470.027 C 68 470.685, 68.668 470.944, 69.500 470.607 C 70.325 470.273, 71.617 469.749, 72.371 469.442 C 73.125 469.136, 74.535 469.678, 75.505 470.648 C 76.634 471.777, 76.860 472.547, 76.134 472.789 C 74.735 473.255, 74.621 476, 76 476 C 76.550 476, 77 478.308, 77 481.129 L 77 486.257 66.250 485.562 C 53.642 484.747, 52 485.153, 52 489.088 C 52 492.625, 50.305 492.215, 80.500 495.995 C 93.700 497.647, 117.775 500.826, 134 503.059 C 150.225 505.291, 166.425 507.144, 170 507.175 C 178.885 507.254, 316.836 495.583, 454.883 483.075 C 460.594 482.557, 465.694 481.706, 466.218 481.182 C 466.741 480.659, 467.019 479.166, 466.835 477.865 C 466.506 475.544, 466.326 475.506, 457.250 475.835 L 448 476.170 448 467.585 C 448 460.621, 448.283 459, 449.500 459 C 450.325 459, 451 458.325, 451 457.500 C 451 456.675, 450.325 456, 449.500 456 C 447.697 456, 447.467 454.051, 449.250 453.882 C 451.175 453.699, 451.333 453.720, 454 454.509 L 456.500 455.248 454.127 452.679 C 452.822 451.265, 450.670 449.972, 449.346 449.805 C 444.882 449.240, 447.454 447.500, 452.752 447.500 C 458.618 447.500, 459.527 446.428, 455 444.850 C 453.350 444.275, 452 443.398, 452 442.902 C 452 442.406, 450.560 442, 448.800 442 C 443.962 442, 446.796 439.890, 452.496 439.248 C 458.211 438.603, 456.549 437.038, 450.128 437.015 C 446.168 437.001, 445.885 436.843, 447.128 435.338 C 447.882 434.424, 449.850 432.850, 451.500 431.842 C 453.955 430.341, 454.137 430.007, 452.500 430.007 C 451.400 430.007, 448.977 430.936, 447.116 432.071 L 443.732 434.134 444.272 432.068 C 444.569 430.932, 444.452 429.779, 444.011 429.507 C 443.068 428.924, 442 431.355, 442 434.082 C 442 436.897, 440.229 436.440, 435.868 432.500 C 430.707 427.837, 427.317 427.668, 431.804 432.298 C 433.562 434.111, 435 435.911, 435 436.298 C 435 436.684, 433.228 437, 431.062 437 L 427.124 437 426.812 418.581 C 426.640 408.450, 426.169 399.832, 425.765 399.429 C 425.148 398.814, 381.779 396.195, 369.750 396.046 L 366 396 366 439.371 L 366 482.742 356.750 483.438 C 351.663 483.821, 331.587 485.450, 312.138 487.057 C 292.690 488.665, 276.377 489.733, 275.888 489.431 C 275.390 489.123, 275 467.634, 275 440.521 L 275 392.159 268.750 391.567 C 265.313 391.241, 252.600 390.309, 240.500 389.497 C 228.400 388.685, 216.415 387.782, 213.867 387.491 L 209.234 386.962 208.492 439.897 M 302 418.812 C 302 436.447, 301.628 447.112, 301 447.500 C 300.450 447.840, 300 449.441, 300 451.059 L 300 454 310.341 454 C 316.029 454, 327.504 453.705, 335.841 453.344 L 351 452.688 351 450.004 C 351 448.113, 350.263 446.985, 348.500 446.182 L 346 445.043 346 419.583 L 346 394.123 341.750 393.601 C 339.413 393.314, 332.550 392.826, 326.500 392.516 C 320.450 392.206, 312.462 391.680, 308.750 391.347 L 302 390.742 302 418.812 M 99.250 399.706 C 96.684 400.200, 96.158 403.463, 98.500 404.362 C 99.754 404.843, 100 407.808, 100 422.469 C 100 437.385, 99.776 440, 98.500 440 C 97.562 440, 97 440.948, 97 442.532 L 97 445.063 108.750 444.782 L 120.500 444.500 120.438 441.750 C 120.403 440.238, 120.291 430, 120.188 419 L 120 399 110.750 399.136 C 105.662 399.211, 100.487 399.467, 99.250 399.706 M 217.231 400.836 C 216.252 401.457, 216.023 406.895, 216.231 424.571 L 216.500 447.500 221 447.500 L 225.500 447.500 225.770 426.367 C 226.069 402.853, 225.581 399.992, 221.275 400.015 C 219.749 400.024, 217.929 400.393, 217.231 400.836 M 309 417.945 L 309 436 314.023 436 L 319.046 436 318.773 418.250 L 318.500 400.500 313.750 400.195 L 309 399.890 309 417.945 M 327.714 401.619 C 327.321 402.012, 327 409.908, 327 419.167 L 327 436 331.524 436 L 336.047 436 335.774 418.750 L 335.500 401.500 331.964 401.202 C 330.020 401.039, 328.107 401.226, 327.714 401.619 M 235 431.500 L 235 461 243.101 461 L 251.201 461 250.561 456.250 C 249.825 450.788, 249.824 452.232, 250.588 423.750 L 251.172 402 243.086 402 L 235 402 235 431.500 M 263 443.583 C 263 476.405, 263.263 485.079, 264.250 484.750 C 265.213 484.430, 265.568 475.850, 265.794 447.417 C 266.086 410.698, 265.731 402, 263.939 402 C 263.369 402, 263 418.337, 263 443.583 M 163.630 403.789 C 163.362 404.224, 163.036 419.789, 162.907 438.379 C 162.649 475.347, 162.481 474.283, 168.500 473.761 L 171.500 473.500 171.763 438.250 L 172.026 403 168.072 403 C 165.897 403, 163.898 403.355, 163.630 403.789 M 373 424 C 373 436, 373.368 443, 374 443 C 374.632 443, 375 436, 375 424 C 375 412, 374.632 405, 374 405 C 373.368 405, 373 412, 373 424 M 378.667 405.667 C 378.300 406.033, 378 415.306, 378 426.274 C 378 441.832, 378.275 446.102, 379.250 445.703 C 379.938 445.422, 381.288 444.876, 382.250 444.489 C 383.212 444.102, 384 444.232, 384 444.776 C 384 445.587, 387.030 445.726, 391.250 445.110 C 391.663 445.049, 392 436.420, 392 425.933 C 392 407.720, 391.916 406.892, 390.118 407.462 C 388.931 407.839, 388.020 407.495, 387.650 406.530 C 386.943 404.688, 384.349 404.503, 383.708 406.250 C 383.342 407.250, 382.985 407.250, 381.925 406.250 C 380.431 404.841, 379.635 404.698, 378.667 405.667 M 109.250 407.662 C 108.331 408.033, 108 411.986, 108 422.583 L 108 437 110.500 437 L 113 437 113 422 C 113 406.731, 112.862 406.205, 109.250 407.662 M 401.230 428.711 L 401.500 450.500 410.270 450.789 L 419.039 451.078 418.770 429.289 L 418.500 407.500 409.730 407.211 L 400.961 406.922 401.230 428.711 M 147 434.941 C 147 441.766, 148.309 444.700, 150.096 441.878 C 151.100 440.294, 151.258 433.564, 150.370 430.250 C 150.038 429.012, 149.144 428, 148.383 428 C 147.338 428, 147 429.698, 147 434.941 M 427 441.724 C 427 442.512, 428.317 443, 430.441 443 C 435.337 443, 435.774 441.284, 430.994 440.828 C 428.222 440.564, 427 440.838, 427 441.724 M 329.762 442.707 C 331.006 442.946, 332.806 442.937, 333.762 442.687 C 334.718 442.437, 333.700 442.241, 331.500 442.252 C 329.300 442.263, 328.518 442.468, 329.762 442.707 M 253.015 445.750 C 253.027 447.893, 253.245 448.169, 254 447 C 255.264 445.043, 255.264 443, 254 443 C 253.450 443, 253.007 444.238, 253.015 445.750 M 430.250 447.805 C 426.601 448.166, 425.756 450.008, 429.250 449.985 C 431.482 449.969, 434.875 448.396, 433.971 447.796 C 433.712 447.624, 432.038 447.628, 430.250 447.805 M 147.430 449.322 C 146.288 452.297, 147.431 457.471, 149.308 457.826 C 150.880 458.124, 151.076 457.547, 150.808 453.413 C 150.504 448.725, 148.562 446.373, 147.430 449.322 M 216.714 454.620 C 216.321 455.012, 216 456.600, 216 458.148 C 216 461.326, 219.046 462.707, 223.561 461.574 C 225.739 461.027, 226.075 460.451, 225.811 457.716 C 225.523 454.736, 225.204 454.478, 221.464 454.203 C 219.244 454.040, 217.106 454.227, 216.714 454.620 M 87.250 465.007 C 83.037 466.746, 84.750 468.113, 90.750 467.800 C 95.061 467.575, 96.500 467.125, 96.500 466 C 96.500 464.213, 90.686 463.589, 87.250 465.007 M 87.500 472 C 85.879 472.696, 86.164 472.859, 89 472.859 C 90.925 472.859, 93.400 472.473, 94.500 472 C 96.121 471.304, 95.836 471.141, 93 471.141 C 91.075 471.141, 88.600 471.527, 87.500 472 M 182.813 475.683 C 183.534 475.972, 184.397 475.936, 184.729 475.604 C 185.061 475.272, 184.471 475.036, 183.417 475.079 C 182.252 475.127, 182.015 475.364, 182.813 475.683 M 233.500 482.033 C 226.350 482.440, 219.037 482.823, 217.250 482.886 C 214.937 482.967, 214 483.478, 214 484.656 C 214 486.152, 215.430 486.250, 228.750 485.673 C 246.856 484.887, 253.190 484.077, 252.709 482.609 C 252.249 481.203, 249.540 481.122, 233.500 482.033 M 136 482.875 C 136 484.134, 140.297 484.826, 156.103 486.113 C 169.760 487.225, 172.410 487.010, 170.356 484.956 C 168.392 482.992, 136 481.029, 136 482.875 M 183.229 483.188 C 183.847 485.042, 186 485.349, 186 483.583 C 186 482.712, 185.287 482, 184.417 482 C 183.546 482, 183.011 482.534, 183.229 483.188 M 127.581 489.868 C 126.427 491.737, 130.631 492.746, 149 495.007 C 158.625 496.193, 167.545 497.408, 168.823 497.708 C 170.944 498.206, 171.118 497.960, 170.823 494.877 L 170.500 491.500 161 490.889 C 155.775 490.553, 146.275 489.934, 139.888 489.512 C 131.626 488.966, 128.075 489.069, 127.581 489.868" stroke="none" fill="black" fill-rule="evenodd"/>
</svg>